<?xml version="1.0" encoding="UTF-8" standalone="no"?>
<svg
   version="1.1"
   viewBox="0 0 1023.99 1023.995"
   id="svg26"
   sodipodi:docname="ass_icon.svg"
   inkscape:version="1.1 (c68e22c387, 2021-05-23)"
   width="1023.99"
   height="1023.995"
   xmlns:inkscape="http://www.inkscape.org/namespaces/inkscape"
   xmlns:sodipodi="http://sodipodi.sourceforge.net/DTD/sodipodi-0.dtd"
   xmlns="http://www.w3.org/2000/svg"
   xmlns:svg="http://www.w3.org/2000/svg">
  <defs
     id="defs30" />
  <sodipodi:namedview
     id="namedview28"
     pagecolor="#ffffff"
     bordercolor="#666666"
     borderopacity="1.0"
     inkscape:pageshadow="2"
     inkscape:pageopacity="0.0"
     inkscape:pagecheckerboard="0"
     showgrid="false"
     showguides="true"
     inkscape:guide-bbox="true"
     inkscape:zoom="0.091918946"
     inkscape:cx="3269.1846"
     inkscape:cy="1028.0797"
     inkscape:window-width="1920"
     inkscape:window-height="1017"
     inkscape:window-x="-8"
     inkscape:window-y="575"
     inkscape:window-maximized="1"
     inkscape:current-layer="svg26"
     fit-margin-top="0"
     fit-margin-left="0"
     fit-margin-right="0"
     fit-margin-bottom="0" />
  <desc
     id="desc2">electric_iron icon - Licensed under Iconfu Standard License v1.0 (https://www.iconfu.com/iconfu_standard_license) - Incors GmbH</desc>
  <path
     d="M 772.87,1023.99 H 251.12 C 112.43,1023.99 0,911.56 0,772.87 V 251.12 C 0,112.43 112.43,0 251.12,0 h 521.75 c 138.69,0 251.12,112.43 251.12,251.12 v 521.75 c 0,138.69 -112.43,251.12 -251.12,251.12 z"
     fill="#707070"
     id="path4"
     style="mix-blend-mode:normal;fill:#e0e0e0;fill-opacity:1;fill-rule:nonzero" />
  <path
     id="path59577"
     style="fill:#c6c7c6;fill-opacity:1;stroke:none;stroke-width:1px;stroke-linecap:butt;stroke-linejoin:miter;stroke-opacity:1"
     d="M 723.57203,339.28211 262.21656,714.92469 571.28883,1023.995 h 201.58203 c 138.69,0 251.11914,-112.42914 251.11914,-251.11914 V 639.70008 Z" />
  <path
     id="path57429"
     style="fill:#c6c7c6;fill-opacity:1;stroke:none;stroke-width:1px;stroke-linecap:butt;stroke-linejoin:miter;stroke-opacity:1"
     d="M 499.98219,202.07703 350.76344,351.29578 950.16383,950.69617 C 995.76278,905.23174 1023.99,842.35512 1023.99,772.87586 v -46.79102 z" />
  <g
     id="g51343"
     transform="matrix(2.0729778,0,0,2.0729778,-1271.0661,53.523333)"
     style="stroke-width:0.482397">
    <g
       id="g34661"
       style="stroke-width:0.482397">
      <circle
         style="fill:#ff9833;fill-opacity:1;stroke-width:3.85918"
         id="path2334"
         cx="797.63898"
         cy="261.07172"
         r="82.21595" />
      <path
         id="circle30767"
         style="fill:#ec8520;fill-opacity:1;stroke-width:3.85918"
         d="M 855.77539,202.93555 739.65234,319.05859 a 82.21595,82.21595 0 0 0 57.98633,24.22852 82.21595,82.21595 0 0 0 82.2168,-82.21484 82.21595,82.21595 0 0 0 -24.08008,-58.13672 z" />
    </g>
    <g
       id="g34657"
       style="stroke-width:0.482397">
      <circle
         style="fill:#bfde14;fill-opacity:1;stroke-width:3.85918"
         id="path12647"
         cx="818.31317"
         cy="107.69809"
         r="50.964272" />
      <path
         id="circle27032"
         style="fill:#accb01;fill-opacity:1;stroke-width:3.85918"
         d="m 854.34961,71.662109 -71.98242,71.982421 a 50.964272,50.964272 0 0 0 35.94531,15.01758 50.964272,50.964272 0 0 0 50.96484,-50.96484 50.964272,50.964272 0 0 0 -14.92773,-36.035161 z" />
    </g>
    <g
       id="g51326"
       style="stroke-width:0.482397">
      <circle
         style="fill:#0096d7;fill-opacity:1;stroke-width:3.85918"
         id="path10004"
         cx="914.953"
         cy="185.10609"
         r="66.830513" />
      <path
         id="circle48471"
         style="fill:#0083c3;fill-opacity:1;stroke-width:3.85918"
         d="m 962.20898,137.84961 -94.39257,94.39258 a 66.830513,66.830513 0 0 0 47.13671,19.69531 66.830513,66.830513 0 0 0 66.83008,-66.83203 66.830513,66.830513 0 0 0 -19.57422,-47.25586 z" />
    </g>
    <g
       id="g48469"
       style="stroke-width:0.482397">
      <circle
         style="fill:#00b0f0;fill-opacity:1;stroke-width:3.85918"
         id="path7281"
         cx="901.49078"
         cy="282.22672"
         r="103.37094" />
      <path
         id="circle41567"
         style="fill:#009ddd;fill-opacity:1;stroke-width:3.85918"
         d="M 974.58398,209.13281 828.58203,355.13477 a 103.37094,103.37094 0 0 0 72.9082,30.46289 103.37094,103.37094 0 0 0 103.37107,-103.3711 103.37094,103.37094 0 0 0 -30.27536,-73.09375 103.37094,103.37094 0 0 0 -0.002,0 z" />
    </g>
    <g
       id="g41565"
       style="stroke-width:0.482397">
      <path
         style="fill:#fafafa;fill-opacity:1;stroke-width:3.85918"
         id="path4667"
         sodipodi:type="arc"
         sodipodi:cx="834.17938"
         sodipodi:cy="287.03464"
         sodipodi:rx="56.253021"
         sodipodi:ry="56.253021"
         sodipodi:start="6.0877608"
         sodipodi:end="6.0861202"
         sodipodi:arc-type="slice"
         d="m 889.36165,276.11126 a 56.253021,56.253021 0 0 1 -44.23626,66.10116 56.253021,56.253021 0 0 1 -66.11929,-44.20914 56.253021,56.253021 0 0 1 44.18201,-66.13742 56.253021,56.253021 0 0 1 66.15554,44.15488 l -55.16427,11.0139 z" />
      <path
         id="path34663"
         style="fill:#e7e7e7;fill-opacity:1;stroke-width:3.85918"
         d="m 873.91211,247.30078 -39.73242,39.73438 55.16406,-11.01368 a 56.253021,56.253021 0 0 0 -15.43164,-28.7207 z m -39.73242,39.73438 -39.73242,39.73046 a 56.253021,56.253021 0 0 0 50.67773,15.44727 56.253021,56.253021 0 0 0 44.23633,-66.10156 z" />
    </g>
  </g>
</svg>
