<?xml version="1.0" encoding="UTF-8" standalone="no"?>
<svg
   version="1.1"
   viewBox="0 0 7795.2476 1023.995"
   id="svg26"
   sodipodi:docname="ass_logo.svg"
   inkscape:version="1.1 (c68e22c387, 2021-05-23)"
   width="7795.2476"
   height="1023.995"
   xmlns:inkscape="http://www.inkscape.org/namespaces/inkscape"
   xmlns:sodipodi="http://sodipodi.sourceforge.net/DTD/sodipodi-0.dtd"
   xmlns="http://www.w3.org/2000/svg"
   xmlns:svg="http://www.w3.org/2000/svg">
  <defs
     id="defs30" />
  <sodipodi:namedview
     id="namedview28"
     pagecolor="#ffffff"
     bordercolor="#666666"
     borderopacity="1.0"
     inkscape:pageshadow="2"
     inkscape:pageopacity="0.0"
     inkscape:pagecheckerboard="0"
     showgrid="false"
     showguides="true"
     inkscape:guide-bbox="true"
     inkscape:zoom="0.091918946"
     inkscape:cx="3269.1846"
     inkscape:cy="1028.0797"
     inkscape:window-width="1920"
     inkscape:window-height="1017"
     inkscape:window-x="1912"
     inkscape:window-y="-8"
     inkscape:window-maximized="1"
     inkscape:current-layer="svg26"
     fit-margin-top="0"
     fit-margin-left="0"
     fit-margin-right="0"
     fit-margin-bottom="0" />
  <desc
     id="desc2">electric_iron icon - Licensed under Iconfu Standard License v1.0 (https://www.iconfu.com/iconfu_standard_license) - Incors GmbH</desc>
  <g
     aria-label="Qt Advanced Stylesheets"
     id="text5154"
     style="font-weight:300;font-size:633.196px;line-height:1.25;font-family:'Segoe UI';-inkscape-font-specification:'Segoe UI Light';fill:#8f918f">
    <path
       d="m 1405.144,728.68257 q -93.99,0 -149.9512,-62.4539 -55.652,-62.4539 -55.652,-162.31831 0,-106.04796 57.1979,-169.73857 57.5071,-63.99979 156.7531,-63.99979 89.6616,0 145.0044,61.52637 55.652,61.21719 55.652,160.77242 0,110.06727 -56.8887,173.13952 -17.6232,19.78738 -39.2656,33.08202 l 107.5938,81.9321 h -51.6326 l -83.7872,-67.40075 q -37.7197,15.45889 -85.0239,15.45889 z m 3.0918,-430.68457 q -77.2944,0 -127.3812,55.96116 -49.7776,55.96117 -49.7776,146.55025 0,91.5166 47.3041,145.93188 47.3042,54.10611 126.1446,54.10611 82.2412,0 130.1638,-53.48775 47.9225,-53.79693 47.9225,-149.64202 0,-93.99003 -46.995,-146.55024 Q 1488.9312,297.998 1408.2358,297.998 Z"
       id="path31068" />
    <path
       d="m 1819.133,716.62464 q -22.2608,10.51204 -41.739,10.51204 -70.1833,0 -70.1833,-84.09634 V 430.32606 h -56.8887 v -25.97093 h 56.8887 v -82.24127 q 6.8019,-2.47342 14.2221,-4.94685 7.4203,-2.16424 14.2222,-4.63766 v 91.82578 h 83.478 v 25.97093 h -83.478 v 209.00415 q 0,32.77283 10.2029,47.61337 10.512,14.53135 35.2462,14.53135 17.6232,0 38.0289,-11.43958 z"
       id="path31070" />
    <path
       d="m 2350.3003,720.95312 -50.7051,-137.89326 h -192.3085 l -50.7052,137.89326 h -33.7004 l 167.2652,-443.36085 h 29.0627 l 165.4101,443.36085 z M 2214.2621,349.93985 q -3.4009,-9.27533 -5.5652,-18.24148 -2.1642,-7.72945 -4.6376,-15.45889 h -1.2367 q -5.2561,20.40573 -10.2029,33.08202 l -74.5118,205.60319 h 170.9753 z"
       id="path31072" />
    <path
       d="m 2678.338,720.95312 v -57.50705 h -1.2368 q -15.4588,29.99024 -45.7583,47.61337 -30.2994,17.62313 -68.3282,17.62313 -58.4346,0 -95.536,-42.66653 -36.7921,-42.66652 -36.7921,-117.79671 0,-76.67608 40.1931,-123.98027 40.5023,-47.61337 104.8112,-47.61337 71.1109,0 101.4103,58.43459 h 1.2368 V 252.23969 h 28.4443 v 468.71343 z m 0,-192.61772 q 0,-44.21241 -28.1352,-74.82101 -27.826,-30.91777 -75.1302,-30.91777 -49.7776,0 -82.2413,38.33804 -32.4636,38.02886 -32.4636,104.81125 0,65.54567 29.0627,101.41029 29.3718,35.55544 75.4393,35.55544 54.1061,0 83.7872,-33.3912 29.6811,-33.70037 29.6811,-81.93209 z"
       id="path31074" />
    <path
       d="m 2912.0763,720.95312 h -25.9709 L 2763.671,404.35513 h 31.8453 l 94.2992,251.97985 q 6.8019,18.24149 9.5845,33.08202 h 1.2367 q 4.0193,-19.4782 8.9662,-31.84531 l 97.391,-253.21656 h 30.9177 z"
       id="path31076" />
    <path
       d="m 3284.3262,720.95312 v -63.38143 h -1.2367 q -15.1497,32.46366 -44.2124,51.94186 -28.7535,19.16902 -63.9998,19.16902 -45.14,0 -71.4201,-25.35258 -26.2801,-25.35257 -26.2801,-63.99978 0,-82.85964 109.7581,-100.17359 l 97.391,-14.53135 q 0,-102.02865 -76.6761,-102.02865 -52.251,0 -101.7194,42.04817 v -34.31873 q 17.6231,-13.913 47.6133,-23.80668 30.2995,-9.89369 56.8887,-9.89369 48.8501,0 75.4394,30.29942 26.8985,30.29941 26.8985,88.11565 v 205.91236 z m -87.1881,-157.68064 q -49.7776,7.11109 -69.8742,23.18833 -20.0965,15.76807 -20.0965,51.63268 0,28.13518 18.5506,46.37666 18.8599,18.24149 52.2511,18.24149 45.7583,0 76.0577,-33.70037 30.2994,-34.00955 30.2994,-87.4973 V 550.5962 Z"
       id="path31078" />
    <path
       d="M 3623.185,720.95312 V 536.6832 q 0,-114.08658 -82.2413,-114.08658 -45.7583,0 -75.1302,33.70037 -29.3719,33.3912 -29.3719,82.85963 v 181.7965 h -28.4443 V 404.35513 h 28.4443 v 57.50706 h 1.2367 q 34.6279,-65.2365 108.2122,-65.2365 51.3235,0 78.5312,34.31873 27.2076,34.00955 27.2076,97.39098 v 192.61772 z"
       id="path31080" />
    <path
       d="m 3951.841,707.04013 q -35.2463,21.64244 -84.0964,21.64244 -64.6181,0 -104.1929,-44.21242 -39.5747,-44.52159 -39.5747,-116.25082 0,-75.43937 44.5216,-123.36191 44.5216,-48.23173 114.3957,-48.23173 36.1738,0 70.1834,14.84053 v 32.15448 q -34.0096,-21.02408 -74.5118,-21.02408 -55.652,0 -90.2799,40.1931 -34.6279,39.88393 -34.6279,103.57454 0,61.52637 31.5361,98.93687 31.8453,37.41051 83.7872,37.41051 47.6133,0 82.8596,-25.35257 z"
       id="path31082" />
    <path
       d="m 4034.7005,563.89084 q 0,65.2365 29.9903,102.02865 30.2994,36.79215 82.8596,36.79215 53.1786,0 103.8837,-39.26557 v 30.29942 q -49.1592,34.93708 -109.7581,34.93708 -61.2172,0 -98.9368,-43.90324 -37.7197,-43.90324 -37.7197,-123.98027 0,-69.25581 39.2655,-116.56 39.5748,-47.61337 102.6471,-47.61337 59.0529,0 90.589,41.42982 31.5362,41.42981 31.5362,113.15904 v 12.67629 z m 204.6757,-25.97093 q -1.8551,-54.72446 -26.2801,-85.02387 -24.4251,-30.29942 -67.4008,-30.29942 -44.5216,0 -73.8934,29.99024 -29.0627,29.68106 -35.8647,85.33305 z"
       id="path31084" />
    <path
       d="m 4572.3605,720.95312 v -57.50705 h -1.2367 q -15.4589,29.99024 -45.7583,47.61337 -30.2994,17.62313 -68.3283,17.62313 -58.4345,0 -95.5359,-42.66653 -36.7921,-42.66652 -36.7921,-117.79671 0,-76.67608 40.1931,-123.98027 40.5023,-47.61337 104.8112,-47.61337 71.1109,0 101.4103,58.43459 h 1.2367 V 252.23969 h 28.4444 v 468.71343 z m 0,-192.61772 q 0,-44.21241 -28.1351,-74.82101 -27.826,-30.91777 -75.1302,-30.91777 -49.7776,0 -82.2413,38.33804 -32.4637,38.02886 -32.4637,104.81125 0,65.54567 29.0627,101.41029 29.3719,35.55544 75.4394,35.55544 54.1061,0 83.7872,-33.3912 29.681,-33.70037 29.681,-81.93209 z"
       id="path31086" />
    <path
       d="m 4867.9346,705.18506 v -34.93708 q 47.6133,30.29942 96.4634,30.29942 51.9419,0 78.8403,-21.33327 26.8985,-21.64244 26.8985,-60.28965 0,-34.00955 -18.2415,-54.10611 -17.9323,-20.40573 -78.222,-55.34281 -67.4007,-39.26557 -85.333,-65.54568 -17.9323,-26.58928 -17.9323,-61.21719 0,-46.99501 36.483,-79.76785 36.4829,-32.77284 97.3909,-32.77284 39.5748,0 79.1495,13.29464 v 32.15449 Q 5044.475,297.998 5000.2626,297.998 q -45.1399,0 -71.7292,22.87915 -26.2801,22.87915 -26.2801,58.12541 0,34.00955 17.9323,54.1061 18.2415,20.09655 78.222,54.72446 62.1447,35.24626 82.5504,62.76308 20.7149,27.20764 20.7149,62.76308 0,51.01432 -35.5554,83.1688 -35.2463,32.15449 -99.8644,32.15449 -22.8792,0 -52.8694,-7.11109 -29.6811,-7.11109 -45.4491,-16.38642 z"
       id="path31088" />
    <path
       d="m 5315.6239,716.62464 q -22.2608,10.51204 -41.739,10.51204 -70.1833,0 -70.1833,-84.09634 V 430.32606 h -56.8887 v -25.97093 h 56.8887 v -82.24127 q 6.8019,-2.47342 14.2221,-4.94685 7.4203,-2.16424 14.2222,-4.63766 v 91.82578 h 83.478 v 25.97093 h -83.478 v 209.00415 q 0,32.77283 10.2029,47.61337 10.512,14.53135 35.2462,14.53135 17.6232,0 38.0289,-11.43958 z"
       id="path31090" />
    <path
       d="m 5455.6813,785.57127 q -17.3139,42.66653 -38.338,63.38143 -21.0241,20.71491 -54.1061,20.71491 -13.913,0 -24.7342,-4.32849 v -28.44435 q 11.1304,4.32849 25.9709,4.32849 38.0289,0 59.9805,-52.56021 l 29.3719,-70.18335 -119.961,-314.12457 h 31.8453 l 95.5359,257.85423 q 3.0918,8.3478 4.3285,12.67628 1.2367,5.87438 2.7826,10.51205 h 1.2367 l 7.4203,-21.33327 102.0287,-259.70929 h 30.9177 z"
       id="path31092" />
    <path
       d="M 5665.3039,720.95312 V 252.23969 h 28.4444 v 468.71343 z"
       id="path31094" />
    <path
       d="m 5801.9603,563.89084 q 0,65.2365 29.9902,102.02865 30.2995,36.79215 82.8597,36.79215 53.1785,0 103.8837,-39.26557 v 30.29942 q -49.1593,34.93708 -109.7581,34.93708 -61.2172,0 -98.9369,-43.90324 -37.7197,-43.90324 -37.7197,-123.98027 0,-69.25581 39.2656,-116.56 39.5748,-47.61337 102.647,-47.61337 59.053,0 90.5891,41.42982 31.5361,41.42981 31.5361,113.15904 v 12.67629 z m 204.6757,-25.97093 q -1.8551,-54.72446 -26.2801,-85.02387 -24.4251,-30.29942 -67.4008,-30.29942 -44.5216,0 -73.8935,29.99024 -29.0627,29.68106 -35.8646,85.33305 z"
       id="path31096" />
    <path
       d="M 6098.4619,707.04013 V 672.7214 q 16.0773,13.913 38.9564,21.95162 22.8792,8.03862 39.5748,8.03862 74.5118,0 74.5118,-60.90801 0,-21.02409 -16.3864,-35.86462 -16.3864,-14.84053 -53.1786,-30.60859 -45.4491,-19.78738 -63.9998,-40.81146 -18.2415,-21.33327 -18.2415,-51.63268 0,-38.64722 29.3719,-62.45391 29.6811,-23.80668 72.966,-23.80668 40.8114,0 69.8741,16.6956 v 32.15448 q -35.2462,-22.87915 -72.9659,-22.87915 -31.227,0 -50.396,16.38642 -19.169,16.07724 -19.169,42.04817 0,22.56997 12.0579,36.79215 12.058,13.913 53.1786,32.15448 49.4684,22.2608 68.0191,41.42982 18.5507,18.85984 18.5507,50.39597 0,37.71968 -28.4444,62.4539 -28.1352,24.42504 -77.9128,24.42504 -45.7583,0 -76.3669,-21.64244 z"
       id="path31098" />
    <path
       d="M 6575.8324,720.95312 V 531.118 q 0,-56.27035 -20.4057,-82.24127 -20.4057,-26.28011 -63.6906,-26.28011 -40.8115,0 -71.7293,31.8453 -30.9177,31.84531 -30.9177,91.20743 v 175.30377 h -28.4444 V 252.23969 h 28.4444 v 209.00414 h 1.2367 q 37.4105,-64.61814 108.8305,-64.61814 51.3235,0 78.222,33.08202 26.8985,33.08201 26.8985,94.91756 v 196.32785 z"
       id="path31100" />
    <path
       d="m 6706.3055,563.89084 q 0,65.2365 29.9903,102.02865 30.2994,36.79215 82.8596,36.79215 53.1786,0 103.8837,-39.26557 v 30.29942 q -49.1593,34.93708 -109.7581,34.93708 -61.2172,0 -98.9369,-43.90324 -37.7196,-43.90324 -37.7196,-123.98027 0,-69.25581 39.2655,-116.56 39.5748,-47.61337 102.647,-47.61337 59.053,0 90.5891,41.42982 31.5361,41.42981 31.5361,113.15904 v 12.67629 z m 204.6757,-25.97093 q -1.8551,-54.72446 -26.2801,-85.02387 -24.4251,-30.29942 -67.4008,-30.29942 -44.5216,0 -73.8935,29.99024 -29.0627,29.68106 -35.8646,85.33305 z"
       id="path31102" />
    <path
       d="m 7025.995,563.89084 q 0,65.2365 29.9902,102.02865 30.2994,36.79215 82.8596,36.79215 53.1786,0 103.8838,-39.26557 v 30.29942 q -49.1593,34.93708 -109.7581,34.93708 -61.2172,0 -98.9369,-43.90324 -37.7197,-43.90324 -37.7197,-123.98027 0,-69.25581 39.2656,-116.56 39.5747,-47.61337 102.647,-47.61337 59.0529,0 90.5891,41.42982 31.5361,41.42981 31.5361,113.15904 v 12.67629 z m 204.6756,-25.97093 q -1.855,-54.72446 -26.2801,-85.02387 -24.425,-30.29942 -67.4007,-30.29942 -44.5216,0 -73.8935,29.99024 -29.0627,29.68106 -35.8646,85.33305 z"
       id="path31104" />
    <path
       d="m 7464.1,716.62464 q -22.2608,10.51204 -41.739,10.51204 -70.1834,0 -70.1834,-84.09634 V 430.32606 h -56.8887 v -25.97093 h 56.8887 v -82.24127 q 6.802,-2.47342 14.2222,-4.94685 7.4203,-2.16424 14.2222,-4.63766 v 91.82578 h 83.478 v 25.97093 h -83.478 v 209.00415 q 0,32.77283 10.2029,47.61337 10.512,14.53135 35.2462,14.53135 17.6232,0 38.0289,-11.43958 z"
       id="path31106" />
    <path
       d="M 7510.4766,707.04013 V 672.7214 q 16.0772,13.913 38.9564,21.95162 22.8791,8.03862 39.5747,8.03862 74.5118,0 74.5118,-60.90801 0,-21.02409 -16.3864,-35.86462 -16.3864,-14.84053 -53.1785,-30.60859 -45.4492,-19.78738 -63.9998,-40.81146 -18.2415,-21.33327 -18.2415,-51.63268 0,-38.64722 29.3719,-62.45391 29.681,-23.80668 72.9659,-23.80668 40.8115,0 69.8742,16.6956 v 32.15448 q -35.2463,-22.87915 -72.966,-22.87915 -31.2269,0 -50.3959,16.38642 -19.1691,16.07724 -19.1691,42.04817 0,22.56997 12.058,36.79215 12.0579,13.913 53.1785,32.15448 49.4685,22.2608 68.0191,41.42982 18.5507,18.85984 18.5507,50.39597 0,37.71968 -28.4443,62.4539 -28.1352,24.42504 -77.9128,24.42504 -45.7583,0 -76.3669,-21.64244 z"
       id="path31108" />
  </g>
  <path
     d="M 772.87,1023.99 H 251.12 C 112.43,1023.99 0,911.56 0,772.87 V 251.12 C 0,112.43 112.43,0 251.12,0 h 521.75 c 138.69,0 251.12,112.43 251.12,251.12 v 521.75 c 0,138.69 -112.43,251.12 -251.12,251.12 z"
     fill="#707070"
     id="path4"
     style="mix-blend-mode:normal;fill:#e0e0e0;fill-opacity:1;fill-rule:nonzero" />
  <path
     id="path59577"
     style="fill:#c6c7c6;fill-opacity:1;stroke:none;stroke-width:1px;stroke-linecap:butt;stroke-linejoin:miter;stroke-opacity:1"
     d="M 723.57203,339.28211 262.21656,714.92469 571.28883,1023.995 h 201.58203 c 138.69,0 251.11914,-112.42914 251.11914,-251.11914 V 639.70008 Z" />
  <path
     id="path57429"
     style="fill:#c6c7c6;fill-opacity:1;stroke:none;stroke-width:1px;stroke-linecap:butt;stroke-linejoin:miter;stroke-opacity:1"
     d="M 499.98219,202.07703 350.76344,351.29578 950.16383,950.69617 C 995.76278,905.23174 1023.99,842.35512 1023.99,772.87586 v -46.79102 z" />
  <g
     id="g51343"
     transform="matrix(2.0729778,0,0,2.0729778,-1271.0661,53.523333)"
     style="stroke-width:0.482397">
    <g
       id="g34661"
       style="stroke-width:0.482397">
      <circle
         style="fill:#ff9833;fill-opacity:1;stroke-width:3.85918"
         id="path2334"
         cx="797.63898"
         cy="261.07172"
         r="82.21595" />
      <path
         id="circle30767"
         style="fill:#ec8520;fill-opacity:1;stroke-width:3.85918"
         d="M 855.77539,202.93555 739.65234,319.05859 a 82.21595,82.21595 0 0 0 57.98633,24.22852 82.21595,82.21595 0 0 0 82.2168,-82.21484 82.21595,82.21595 0 0 0 -24.08008,-58.13672 z" />
    </g>
    <g
       id="g34657"
       style="stroke-width:0.482397">
      <circle
         style="fill:#bfde14;fill-opacity:1;stroke-width:3.85918"
         id="path12647"
         cx="818.31317"
         cy="107.69809"
         r="50.964272" />
      <path
         id="circle27032"
         style="fill:#accb01;fill-opacity:1;stroke-width:3.85918"
         d="m 854.34961,71.662109 -71.98242,71.982421 a 50.964272,50.964272 0 0 0 35.94531,15.01758 50.964272,50.964272 0 0 0 50.96484,-50.96484 50.964272,50.964272 0 0 0 -14.92773,-36.035161 z" />
    </g>
    <g
       id="g51326"
       style="stroke-width:0.482397">
      <circle
         style="fill:#0096d7;fill-opacity:1;stroke-width:3.85918"
         id="path10004"
         cx="914.953"
         cy="185.10609"
         r="66.830513" />
      <path
         id="circle48471"
         style="fill:#0083c3;fill-opacity:1;stroke-width:3.85918"
         d="m 962.20898,137.84961 -94.39257,94.39258 a 66.830513,66.830513 0 0 0 47.13671,19.69531 66.830513,66.830513 0 0 0 66.83008,-66.83203 66.830513,66.830513 0 0 0 -19.57422,-47.25586 z" />
    </g>
    <g
       id="g48469"
       style="stroke-width:0.482397">
      <circle
         style="fill:#00b0f0;fill-opacity:1;stroke-width:3.85918"
         id="path7281"
         cx="901.49078"
         cy="282.22672"
         r="103.37094" />
      <path
         id="circle41567"
         style="fill:#009ddd;fill-opacity:1;stroke-width:3.85918"
         d="M 974.58398,209.13281 828.58203,355.13477 a 103.37094,103.37094 0 0 0 72.9082,30.46289 103.37094,103.37094 0 0 0 103.37107,-103.3711 103.37094,103.37094 0 0 0 -30.27536,-73.09375 103.37094,103.37094 0 0 0 -0.002,0 z" />
    </g>
    <g
       id="g41565"
       style="stroke-width:0.482397">
      <path
         style="fill:#fafafa;fill-opacity:1;stroke-width:3.85918"
         id="path4667"
         sodipodi:type="arc"
         sodipodi:cx="834.17938"
         sodipodi:cy="287.03464"
         sodipodi:rx="56.253021"
         sodipodi:ry="56.253021"
         sodipodi:start="6.0877608"
         sodipodi:end="6.0861202"
         sodipodi:arc-type="slice"
         d="m 889.36165,276.11126 a 56.253021,56.253021 0 0 1 -44.23626,66.10116 56.253021,56.253021 0 0 1 -66.11929,-44.20914 56.253021,56.253021 0 0 1 44.18201,-66.13742 56.253021,56.253021 0 0 1 66.15554,44.15488 l -55.16427,11.0139 z" />
      <path
         id="path34663"
         style="fill:#e7e7e7;fill-opacity:1;stroke-width:3.85918"
         d="m 873.91211,247.30078 -39.73242,39.73438 55.16406,-11.01368 a 56.253021,56.253021 0 0 0 -15.43164,-28.7207 z m -39.73242,39.73438 -39.73242,39.73046 a 56.253021,56.253021 0 0 0 50.67773,15.44727 56.253021,56.253021 0 0 0 44.23633,-66.10156 z" />
    </g>
  </g>
</svg>
